<svg id="Layer_1" data-name="Layer 1" xmlns="http://www.w3.org/2000/svg" xmlns:xlink="http://www.w3.org/1999/xlink" viewBox="0 0 68.7 69"><defs><style>.cls-1{fill:#ffffff;}.cls-2{fill:url(#linear-gradient);}.cls-3{fill:url(#linear-gradient-2);}.cls-4{fill:url(#linear-gradient-3);}.cls-5{fill:url(#linear-gradient-4);}.cls-6{fill:url(#radial-gradient);}</style><linearGradient id="linear-gradient" x1="23.52" y1="-99.92" x2="18.38" y2="-93.28" gradientTransform="matrix(1, 0, 0, -1, 0, -74.5)" gradientUnits="userSpaceOnUse"><stop offset="0.01" stop-color="#ffffff"/><stop offset="1" stop-color="#ffffff"/></linearGradient><linearGradient id="linear-gradient-2" x1="44.69" y1="-98.62" x2="50.03" y2="-93.18" xlink:href="#linear-gradient"/><linearGradient id="linear-gradient-3" x1="45.93" y1="-119.52" x2="50.32" y2="-124.88" gradientTransform="matrix(1, 0, 0, -1, 0, -74.5)" gradientUnits="userSpaceOnUse"><stop offset="0.01" stop-color="#ffffff"/><stop offset="1" stop-color="#ffffff"/></linearGradient><linearGradient id="linear-gradient-4" x1="23.41" y1="-119.8" x2="18.75" y2="-124.54" xlink:href="#linear-gradient-3"/><radialGradient id="radial-gradient" cx="902.51" cy="-594.56" r="10.94" gradientTransform="matrix(0.82, 0, 0, -0.82, -709.32, -455.41)" gradientUnits="userSpaceOnUse"><stop offset="0" stop-color="#ffffff"/><stop offset="0.99" stop-color="#ffffff"/></radialGradient></defs><title>Artboard 1 copy0</title><path class="cls-1" d="M65.1,34.5a10.56,10.56,0,0,0-7-18.5,17.12,17.12,0,0,0-6.5,1.3,18.38,18.38,0,0,0,1.2-6.6,10.56,10.56,0,0,0-18.5-7,10.56,10.56,0,0,0-18.5,7,17.12,17.12,0,0,0,1.3,6.5A18.38,18.38,0,0,0,10.5,16,10.56,10.56,0,0,0,3.6,34.5a10.56,10.56,0,0,0,7,18.5,17.12,17.12,0,0,0,6.5-1.3,18.47,18.47,0,0,0-1.3,6.6A10.61,10.61,0,0,0,26.4,68.9a10.36,10.36,0,0,0,7.9-3.6,10.56,10.56,0,0,0,18.5-7,17.12,17.12,0,0,0-1.3-6.5A18.38,18.38,0,0,0,58.1,53,10.61,10.61,0,0,0,68.7,42.4,10.88,10.88,0,0,0,65.1,34.5ZM34.3,50.4a47.5,47.5,0,0,0-5.2-6.9c1.9-1.8,3.7-3.6,5.2-5.1.2.2,3.5,3.6,5.2,5.2A42.58,42.58,0,0,0,34.3,50.4Zm0-31.8a47.5,47.5,0,0,0,5.2,6.9c-1.9,1.8-3.7,3.6-5.2,5.1-.2-.2-3.5-3.6-5.2-5.2A34.94,34.94,0,0,0,34.3,18.6ZM30.5,34.5c-.2.2-3.6,3.5-5.2,5.2a38.58,38.58,0,0,0-6.9-5.1,47.5,47.5,0,0,0,6.9-5.2C27.2,31.2,28.9,32.9,30.5,34.5Zm7.6,0c.2-.2,3.6-3.5,5.2-5.2a40.07,40.07,0,0,0,6.9,5.1,47.5,47.5,0,0,0-6.9,5.2C41.5,37.8,39.7,36.1,38.1,34.5Zm4.1-29a5.34,5.34,0,0,1,5.3,5.3c0,3.8-1.9,7.5-4.4,10.8C39.4,17.4,37,13.1,37,10.7A5.16,5.16,0,0,1,42.2,5.5Zm-15.8,0a5.27,5.27,0,0,1,5.3,5.3c0,2.4-2.4,6.6-6,10.7-2.6-3.5-4.6-7.1-4.6-10.7A5.27,5.27,0,0,1,26.4,5.5ZM10.6,21.3c3.8,0,7.5,1.9,10.8,4.4-4.2,3.7-8.4,6.1-10.8,6.1a5.21,5.21,0,0,1-5.3-5.3A5.32,5.32,0,0,1,10.6,21.3ZM5.3,42.4a5.4,5.4,0,0,1,5.3-5.3c2.5,0,6.6,2.4,10.7,6-3.5,2.6-7.1,4.6-10.7,4.6A5.34,5.34,0,0,1,5.3,42.4ZM26.4,63.5a5.34,5.34,0,0,1-5.3-5.3c0-3.8,1.9-7.5,4.4-10.8,3.7,4.2,6,8.4,6.1,10.8A5.16,5.16,0,0,1,26.4,63.5Zm15.8,0a5.36,5.36,0,0,1-5.3-5.4c0-2.1,2.4-6.4,6-10.5,2.6,3.5,4.6,7.1,4.6,10.7A5.19,5.19,0,0,1,42.2,63.5ZM58.1,47.7c-3.8,0-7.5-1.9-10.8-4.4,4.2-3.7,8.4-6.1,10.8-6.1a5.24,5.24,0,0,1,5.3,5.3A5.38,5.38,0,0,1,58.1,47.7Zm0-15.9c-2.4,0-6.6-2.4-10.7-6,3.5-2.6,7.1-4.6,10.7-4.6a5.3,5.3,0,0,1,0,10.6Z"/><path class="cls-2" d="M23.5,23.7c.8-.8,1.5-1.5,2.2-2.3A25.15,25.15,0,0,1,22,14.9a20.69,20.69,0,0,0-7.9,6.9,23.56,23.56,0,0,1,7.3,3.9C22.1,25.1,22.8,24.4,23.5,23.7Z"/><path class="cls-3" d="M45.1,23.7c.8.8,1.5,1.5,2.3,2.2a25.15,25.15,0,0,1,6.5-3.7A20.69,20.69,0,0,0,47,14.3a23.56,23.56,0,0,1-3.9,7.3C43.7,22.3,44.4,23,45.1,23.7Z"/><path class="cls-4" d="M45.1,45.3c-.8.8-1.5,1.5-2.2,2.3a25.15,25.15,0,0,1,3.7,6.5,20.69,20.69,0,0,0,7.9-6.9,23.56,23.56,0,0,1-7.3-3.9C46.5,43.9,45.8,44.6,45.1,45.3Z"/><path class="cls-5" d="M23.6,45.3c-.8-.8-1.5-1.5-2.3-2.2a25.15,25.15,0,0,1-6.5,3.7,19.25,19.25,0,0,0,6.8,7.6,21.87,21.87,0,0,1,3.8-7A11.21,11.21,0,0,0,23.6,45.3Z"/><path class="cls-6" d="M34.3,38.3c.2.2,3.5,3.6,5.2,5.2.6-.7,1.2-1.3,1.9-2,.4-.4,1.1-1.1,1.9-1.8-1.8-1.9-3.6-3.7-5.1-5.2.2-.2,3.6-3.5,5.2-5.2-.7-.6-1.3-1.2-2-1.9-.4-.4-1.1-1.1-1.8-1.9-1.9,1.8-3.7,3.6-5.2,5.1-.2-.2-3.5-3.6-5.2-5.2-.6.7-1.2,1.3-1.9,2-.4.4-1.1,1.1-1.9,1.8,1.8,1.9,3.6,3.7,5.1,5.2-.2.2-3.6,3.5-5.2,5.2.7.6,1.3,1.2,2,1.9.4.4,1.1,1.1,1.8,1.9C31,41.7,32.8,39.9,34.3,38.3Z"/></svg>