<svg xmlns="http://www.w3.org/2000/svg" xmlns:xlink="http://www.w3.org/1999/xlink" viewBox="0 0 68.8 68.8">
  <defs>
    <style>
      <!-- .cls-1 {
        fill: white;
      }

      .cls-2 {
        fill: url(#linear-gradient-2);
      }

      .cls-3 {
        fill: url(#linear-gradient-3);
      }

      .cls-4 {
        fill: url(#linear-gradient-4);
      }

      .cls-5 {
        fill: url(#linear-gradient-5);
      }

      .cls-6 {
        opacity: 0.8;
        fill: url(#linear-gradient-6);
      } -->
      .cls-1 {
        fill: white;
      }

      .cls-2 {
        fill: url(#linear-gradient);
      }

      .cls-3 {
        fill: url(#linear-gradient-2);
      }

      .cls-4 {
        fill: url(#linear-gradient-3);
      }

      .cls-5 {
        fill: url(#linear-gradient-4);
      }

      .cls-6 {
        opacity: 0.8;
        fill: url(#radial-gradient);
      }
    </style>
    <!-- <linearGradient id="linear-gradient" x1="0.853" y1="0.781" x2="0.405" y2="0.304" gradientUnits="objectBoundingBox">
      <stop offset="0" stop-color="rgba(133, 136, 141, 0.9)"/>
      <stop offset="1" stop-color="rgba(133, 136, 141, 0.1)"/>
    </linearGradient>
    <linearGradient id="linear-gradient-2-x" x1="0.205" y1="0.781" x2="0.653" y2="0.304" gradientUnits="objectBoundingBox">
      <stop offset="0" stop-color="rgba(133, 136, 141, 0.9)"/>
      <stop offset="1" stop-color="rgba(133, 136, 141, 0.1)"/>
    </linearGradient>
      <linearGradient id="linear-gradient-3-x" x1="0.205" y1="0.304" x2="0.653" y2="0.781" gradientUnits="objectBoundingBox">
      <stop offset="0" stop-color="rgba(133, 136, 141, 0.9)"/>
      <stop offset="1" stop-color="rgba(133, 136, 141, 0.1)"/>
    </linearGradient>
    <linearGradient id="linear-gradient-4-x" x1="0.653" y1="0.304" x2="0.205" y2="0.781" gradientUnits="objectBoundingBox">
      <stop offset="0" stop-color="rgba(133, 136, 141, 0.9)"/>
      <stop offset="1" stop-color="rgba(133, 136, 141, 0.1)"/>
    </linearGradient>
    <linearGradient id="linear-gradient-5-x" x1="0.900" y1="0.111" x2="0.100" y2="0.999" gradientUnits="objectBoundingBox">
      <stop offset="0" stop-color="rgba(133, 136, 141, 0.9)"/>
      <stop offset="1" stop-color="rgba(133, 136, 141, 0.1)"/>
    </linearGradient>

    <linearGradient id="linear-gradient-2"  xlink:href="#linear-gradient"/>
    <linearGradient id="linear-gradient-3"  xlink:href="#linear-gradient-2-x"/>
    <linearGradient id="linear-gradient-4"  xlink:href="#linear-gradient-3-x"/>
    <linearGradient id="linear-gradient-5"  xlink:href="#linear-gradient-4-x"/>
    <linearGradient id="linear-gradient-6"  xlink:href="#linear-gradient-5-x"/>
    <radialGradient id="radial-gradient" cx="0.5" cy="0.5" r="0.499" gradientTransform="translate(-0.001 -0.001)" gradientUnits="objectBoundingBox">
      <stop offset="0" stop-color="#00a79d"/>
      <stop offset="1" stop-color="#006e63"/>
    </radialGradient> -->
    <linearGradient id="linear-gradient" x1="0.853" y1="0.781" x2="0.405" y2="0.304" gradientUnits="objectBoundingBox">
      <stop offset="0" stop-color="rgba(133, 136, 141, 0.9)"/>
      <stop offset="1" stop-color="rgba(133, 136, 141, 0.1)"/>
    </linearGradient>
    <linearGradient id="linear-gradient-2" x1="0.169" y1="0.844" x2="0.661" y2="0.375" xlink:href="#linear-gradient"/>
    <linearGradient id="linear-gradient-3" x1="0.193" y1="0.185" x2="0.65" y2="0.648" xlink:href="#linear-gradient"/>
    <linearGradient id="linear-gradient-4" x1="0.828" y1="0.161" x2="0.304" y2="0.656" xlink:href="#linear-gradient"/>
    <radialGradient id="radial-gradient" cx="0.5" cy="0.5" r="0.499" gradientTransform="translate(-0.001 -0.001)" gradientUnits="objectBoundingBox">
      <stop offset="0" stop-color="rgba(133, 136, 141, 0.1)"/>
      <stop offset="1" stop-color="rgba(133, 136, 141, 0.9)"/>
    </radialGradient>
  </defs>
    <rect class="cls-2"/>
    <rect class="cls-3"/>
    <rect class="cls-4"/>
    <rect class="cls-5"/>
    <rect class="cls-6"/>

  <g id="Group_1" data-name="Group 1" transform="translate(-1242 -581)">
    <path id="Path_10" data-name="Path 10" class="cls-1" d="M65.218,34.385A10.586,10.586,0,0,0,58.206,15.86a17.578,17.578,0,0,0-6.522,1.317,18.363,18.363,0,0,0,1.255-6.583A10.586,10.586,0,0,0,34.415,3.582,10.607,10.607,0,0,0,15.86,10.594a17.578,17.578,0,0,0,1.317,6.522,18.363,18.363,0,0,0-6.583-1.255A10.586,10.586,0,0,0,3.582,34.385,10.607,10.607,0,0,0,10.594,52.94a17.578,17.578,0,0,0,6.522-1.317,18.363,18.363,0,0,0-1.255,6.583,10.586,10.586,0,0,0,18.524,7.012,10.586,10.586,0,0,0,18.524-7.012,17.578,17.578,0,0,0-1.317-6.522,18.363,18.363,0,0,0,6.583,1.255,10.626,10.626,0,0,0,7.042-18.555M34.385,50.306a46.558,46.558,0,0,0-5.236-6.95c1.929-1.776,3.674-3.552,5.236-5.144.153.184,3.491,3.644,5.175,5.236a45.566,45.566,0,0,0-5.175,6.859m0-31.813a44.562,44.562,0,0,0,5.236,6.95c-1.929,1.776-3.674,3.582-5.236,5.144-.153-.184-3.491-3.644-5.175-5.236a40.649,40.649,0,0,0,5.175-6.859m-3.8,15.891c-.184.153-3.644,3.491-5.236,5.175a42.01,42.01,0,0,0-6.859-5.144,46.558,46.558,0,0,0,6.95-5.236c1.776,1.9,3.552,3.644,5.144,5.205m7.593.031c.184-.184,3.644-3.491,5.236-5.175a44.973,44.973,0,0,0,6.859,5.144,46.558,46.558,0,0,0-6.95,5.236c-1.745-1.9-3.552-3.644-5.144-5.205M42.315,5.328a5.3,5.3,0,0,1,5.3,5.3c0,3.766-1.9,7.44-4.44,10.808-3.674-4.164-6.093-8.481-6.093-10.9a5.15,5.15,0,0,1,5.236-5.205m-15.86,0a5.215,5.215,0,0,1,5.266,5.3c0,2.388-2.388,6.583-6,10.686-2.633-3.46-4.593-7.165-4.593-10.686a5.365,5.365,0,0,1,5.328-5.3m-15.86,15.86c3.8,0,7.471,1.9,10.839,4.44-4.164,3.674-8.389,6.093-10.839,6.093a5.17,5.17,0,0,1-5.266-5.266,5.266,5.266,0,0,1,5.266-5.266M5.328,42.346a5.347,5.347,0,0,1,5.266-5.266c2.48,0,6.583,2.358,10.686,6-3.46,2.6-7.165,4.562-10.686,4.562a5.312,5.312,0,0,1-5.266-5.3M26.454,63.472a5.3,5.3,0,0,1-5.3-5.3c0-3.8,1.9-7.471,4.44-10.839,3.674,4.164,6.062,8.389,6.093,10.839a5.187,5.187,0,0,1-5.236,5.3m15.891,0a5.3,5.3,0,0,1-5.266-5.419c0-2.082,2.388-6.43,6-10.563,2.6,3.46,4.562,7.165,4.562,10.686a5.318,5.318,0,0,1-5.3,5.3m15.86-15.86c-3.8,0-7.471-1.9-10.839-4.44,4.164-3.674,8.389-6.093,10.839-6.093a5.217,5.217,0,0,1,5.3,5.266,5.312,5.312,0,0,1-5.3,5.266m0-15.86c-2.449,0-6.583-2.388-10.686-6,3.46-2.6,7.165-4.562,10.686-4.562a5.282,5.282,0,1,1,0,10.563" transform="translate(1242 581)"/>
    <path id="Path_5" data-name="Path 5" class="cls-2" d="M0,9.052a23.2,23.2,0,0,1,7.278,3.9c.731-.64,1.431-1.31,2.162-2.04C10.2,10.148,10.9,9.387,11.6,8.626A25.754,25.754,0,0,1,7.888,2.2,20.291,20.291,0,0,0,0,9.052" transform="translate(1256.083 593.659)"/>
    <path id="Path_6" data-name="Path 6" class="cls-3" d="M94.9,7.348c.648.741,1.327,1.482,2.068,2.192.772.772,1.544,1.482,2.315,2.192A26.108,26.108,0,0,1,105.8,7.965,20.405,20.405,0,0,0,98.852,0,23.053,23.053,0,0,1,94.9,7.348" transform="translate(1190.279 595.031)"/>
    <path id="Path_7" data-name="Path 7" class="cls-4" d="M96.581,96.858c-.768.768-1.474,1.536-2.181,2.3a25.978,25.978,0,0,1,3.748,6.481,19.934,19.934,0,0,0,7.894-6.911A23.4,23.4,0,0,1,98.7,94.8c-.676.676-1.413,1.352-2.119,2.058" transform="translate(1190.68 529.41)"/>
    <path id="Path_8" data-name="Path 8" class="cls-5" d="M2.6,98.192a19.119,19.119,0,0,0,6.906,7.677A21.966,21.966,0,0,1,13.4,98.728c-.647-.74-1.238-1.43-1.947-2.139-.771-.771-1.61-1.433-2.381-2.142A26.779,26.779,0,0,1,2.6,98.192" transform="translate(1254.214 529.616)"/>
    <path id="Path_9" data-name="Path 9" class="cls-6" d="M38.7,38.7c-.43.43-1.106,1.075-1.9,1.812,1.782,1.935,3.532,3.652,5.13,5.218-.184.154-3.606,3.482-5.2,5.172.676.614,1.333,1.283,1.978,1.958.43.43,1.035,1.071,1.772,1.87C42.4,52.946,44.2,51.2,45.762,49.6c.154.184,3.5,3.655,5.191,5.253.614-.676,1.229-1.352,1.9-2,.43-.43,1.106-1.075,1.9-1.812-1.782-1.9-3.563-3.686-5.161-5.253.184-.154,3.655-3.5,5.253-5.191-.676-.614-1.352-1.229-2-1.9-.43-.43-1.075-1.106-1.812-1.9-1.935,1.782-3.686,3.563-5.253,5.161-.154-.184-3.5-3.655-5.191-5.253-.614.676-1.259,1.352-1.9,2" transform="translate(1230.656 569.663)"/>
  </g>
</svg>
