<svg xmlns="http://www.w3.org/2000/svg" width="91.082" height="10.291" viewBox="0 0 91.082 10.291">
  <path id="Path_22" data-name="Path 22" d="M327.149,292.456a2.378,2.378,0,0,1-2.393-2.527v-5.218a2.228,2.228,0,0,1,2.513-2.528h1.362a2.235,2.235,0,0,1,2.528,2.528v5.218a2.38,2.38,0,0,1-2.393,2.527v-1.185a1.178,1.178,0,0,0,1.045-1.342v-5.218q0-1.349-1.18-1.348h-1.348c-.787,0-1.178.449-1.178,1.348v5.218a1.177,1.177,0,0,0,1.044,1.342Zm-6.472-1.185q1.18,0,1.18-1.342v-1.819q0-1.35-1.18-1.349h-1.349q-1.18,0-1.18,1.349v1.819q0,1.34,1.18,1.342Zm-3.877-3.161a2.229,2.229,0,0,1,2.515-2.529h.1l.108-1.031a1.155,1.155,0,0,0-.667-1.12,1.243,1.243,0,0,1-.653-1.254h1.555a1.191,1.191,0,0,0,.566.824,1.652,1.652,0,0,1,.506,1.369v.182l-.067,1.031a2.226,2.226,0,0,1,2.439,2.529v1.819a2.233,2.233,0,0,1-2.526,2.527h-1.349a2.235,2.235,0,0,1-2.528-2.527Zm-7.482-3.405a.73.73,0,0,1-.007-.1v-.1a2.278,2.278,0,0,1,.621-1.747,2.6,2.6,0,0,1,1.834-.58h.957a2.235,2.235,0,0,1,2.527,2.529v5.225a2.233,2.233,0,0,1-2.527,2.527h-1.348a2.235,2.235,0,0,1-2.529-2.527l.2-2H310.4l-.2,2q0,1.34,1.18,1.342h1.348q1.18,0,1.18-1.342V284.7q0-1.35-1.18-1.349h-.943q-1.18,0-1.18,1.349l.067,1.289h-1.348Zm-14.693,4.562a1.917,1.917,0,0,0,.339,1.1,1.486,1.486,0,0,0,1.32.5l4.643.007q2.53,0,2.529,1.583h-1.482c0-.269-.35-.4-1.047-.4l-5.02.013q-1.767-.013-2.2-.989a4.482,4.482,0,0,1-.432-1.808l-.133-4.569a2.227,2.227,0,0,1,2.513-2.527h.621a2.2,2.2,0,0,1,1.848.828,2.181,2.181,0,0,1,1.845-.828h.352a2.206,2.206,0,0,1,1.833.807,2.234,2.234,0,0,1,1.873-.807h.755A2.228,2.228,0,0,1,307.3,284.7v2.553a2.647,2.647,0,0,1-2.46,2.8V288.8a1.524,1.524,0,0,0,1.111-1.544V284.7q0-1.35-1.18-1.349h-.741q-1.18,0-1.18,1.349v2.756H301.5V284.7q0-1.35-1.178-1.349h-.338c-.787,0-1.178.449-1.178,1.349v2.756h-1.349V284.7q0-1.35-1.18-1.349h-.607q-1.18,0-1.178,1.349Zm-7.6-5.642h-.681c-.787,0-1.178.451-1.178,1.348v4.956q0,1.34,1.178,1.342H289q1.177,0,1.178-1.342v-4.956c0-.9-.394-1.348-1.178-1.348h-.757V288.3H287.03Zm-3.207,1.45a2.227,2.227,0,0,1,2.513-2.527h.695v-.373h1.212v.373H289a2.233,2.233,0,0,1,2.526,2.527v4.854A2.233,2.233,0,0,1,289,292.456h-2.65a2.233,2.233,0,0,1-2.526-2.527Zm-5.627,7.381a2.378,2.378,0,0,1-2.393-2.527v-5.218a2.228,2.228,0,0,1,2.513-2.528h1.362a2.235,2.235,0,0,1,2.528,2.528v5.218a2.38,2.38,0,0,1-2.393,2.527v-1.185a1.178,1.178,0,0,0,1.045-1.342v-5.218q0-1.349-1.18-1.348h-1.348c-.787,0-1.178.449-1.178,1.348v5.218a1.177,1.177,0,0,0,1.045,1.342Zm-7.887-6.41h1.348q1.181,0,1.18-1.132a.846.846,0,0,0-.971-.943h-.345q-2.022,0-2.022-1.8h1.349c0,.412.221.619.66.619h.352q2.326,0,2.324,2.123a1.949,1.949,0,0,1-.916,1.76,2.173,2.173,0,0,1,.916,1.9v1.355a2.233,2.233,0,0,1-2.527,2.527h-1.348a2.235,2.235,0,0,1-2.529-2.527l.2-2.225h1.348l-.2,2.225q0,1.34,1.18,1.342h1.348q1.181,0,1.18-1.342v-1.355q0-1.35-1.18-1.348h-1.348Zm-6.019-1.6q0,1.253.594,1.456,1.415.377,1.415,2.481v1.55a2.234,2.234,0,0,1-2.528,2.527h-1.349a2.233,2.233,0,0,1-2.526-2.527v-7.753h1.348v7.753q0,1.34,1.178,1.342h1.349q1.18,0,1.18-1.342v-1.55q0-1.242-.8-1.456-1.2-.359-1.206-2.481Zm-11.743,4.475V284.7q0-1.35-1.18-1.349h-.741q-1.18,0-1.178,1.349v5.231q0,1.14,1.38,1.342v1.185q-2.73-.2-2.728-2.527V284.7a2.227,2.227,0,0,1,2.512-2.527h.755a2.2,2.2,0,0,1,1.854.828,2.193,2.193,0,0,1,1.855-.828h.687a2.227,2.227,0,0,1,2.513,2.527v5.231q0,2.323-2.728,2.527v-1.185c.92-.136,1.383-.582,1.383-1.342V284.7q0-1.35-1.18-1.349h-.674q-1.181,0-1.18,1.349v4.219ZM242.5,284.973h1.383q1.111,0,1.111-.876,0-.728-1.436-.741l-2.358.007v-1.188h2.345q2.8,0,2.8,1.922a1.646,1.646,0,0,1-.734,1.429,1.521,1.521,0,0,1,.8,1.369,1.668,1.668,0,0,1-.755,1.47A1.865,1.865,0,0,1,246.48,290a2.485,2.485,0,0,1-.624,1.852,2.59,2.59,0,0,1-1.9.607l-1.348-.007a2.238,2.238,0,0,1-2.528-2.527l.069-.945h1.348l-.069.945q0,1.34,1.18,1.342l1.415,0c.741-.016,1.114-.442,1.114-1.272q0-1.067-1.247-1.065h-1.316v-1.18h1.383q1.111,0,1.111-.863c0-.495-.414-.741-1.246-.741H242.5Z" transform="translate(-240.077 -282.171)" fill="#fff"/>
</svg>
