<svg id="Layer_1" data-name="Layer 1" xmlns="http://www.w3.org/2000/svg" viewBox="0 0 93.8 20.1"><defs><style>.cls-1{fill:#fff;}</style></defs><title>Artboard 1 copy 20</title><path class="cls-1" d="M9.2,0H4A4,4,0,0,0,0,4V7.5H3.8V3.8a.9.9,0,0,1,.9-.9H8.6a.9.9,0,0,1,.9.9V16.1a.9.9,0,0,1-.9.9H4.7a.9.9,0,0,1-.9-.9V11.3H0V16a4,4,0,0,0,4,4H9.2a4,4,0,0,0,4-4V4A4,4,0,0,0,9.2,0Z"/><path class="cls-1" d="M41.8,0H36.6a4,4,0,0,0-4,4V7.5h3.8V3.8a.9.9,0,0,1,.9-.9h3.9a.9.9,0,0,1,.9.9V16.1a.9.9,0,0,1-.9.9H37.3a.9.9,0,0,1-.9-.9V11.3H32.6V16a4,4,0,0,0,4,4h5.2a4,4,0,0,0,4-4V4A4,4,0,0,0,41.8,0Z"/><path class="cls-1" d="M61.7,0H57.9V3.1H52.8a4,4,0,0,0-4,4v2h3.8V7a.9.9,0,0,1,.9-.9h3.6A.9.9,0,0,1,58,7v9.2a.9.9,0,0,1-.9.9H53.5a.9.9,0,0,1-.9-.9v-4H48.8v3.9a4,4,0,0,0,4,4h4.9a4,4,0,0,0,4-4V0Z"/><path class="cls-1" d="M73.7,7.6v8.6a.9.9,0,0,1-.9.9H69.5a.9.9,0,0,1-.9-.9V0H64.8V16a4,4,0,0,0,4,4h4.7a4,4,0,0,0,4-4V7.5H73.7Z"/><path class="cls-1" d="M84.3,20.1V3.9a.9.9,0,0,1,.9-.9h3.9a.9.9,0,0,1,.9.9V20h3.8V4a4,4,0,0,0-4-4H84.6a4,4,0,0,0-4,4V20h3.7Z"/><path class="cls-1" d="M29.5,4a4,4,0,0,0-4-4H20.3a4,4,0,0,0-4,4V7.5h3.8V3.8a.9.9,0,0,1,.9-.9h3.9a.9.9,0,0,1,.9.9V7.4a.9.9,0,0,1-.9.9H21.6v3.1h3.3a.9.9,0,0,1,.9.9v3.9a.9.9,0,0,1-.9.9H21a.9.9,0,0,1-.9-.9v-4H16.3v3.9a4,4,0,0,0,4,4h5.2a4,4,0,0,0,4-4V12.7a4.84,4.84,0,0,0-1-2.9,4.84,4.84,0,0,0,1-2.9Z"/></svg>